<svg xmlns="http://www.w3.org/2000/svg" xmlns:xlink="http://www.w3.org/1999/xlink" width="815" height="344.469" viewBox="0 0 815 344.469">
  <defs>
    <linearGradient id="linear-gradient" x1="0.067" y1="0.436" x2="0.952" y2="0.595" gradientUnits="objectBoundingBox">
      <stop offset="0" stop-color="#ffcf00"/>
      <stop offset="0.463" stop-color="#fae25a"/>
      <stop offset="0.632" stop-color="#f6cd39"/>
      <stop offset="0.875" stop-color="#f0b30f"/>
      <stop offset="1" stop-color="#efa900"/>
    </linearGradient>
    <linearGradient id="linear-gradient-2" x1="0.06" y1="0.623" x2="1.006" y2="0.395" gradientUnits="objectBoundingBox">
      <stop offset="0" stop-color="#e0a50f"/>
      <stop offset="0.34" stop-color="#75531c"/>
      <stop offset="0.537" stop-color="#e6a90b"/>
      <stop offset="0.778" stop-color="#4b3316"/>
      <stop offset="1" stop-color="#ffc200"/>
    </linearGradient>
  </defs>
  <g id="Group_5" data-name="Group 5" transform="translate(0)">
    <g id="Group_4" data-name="Group 4">
      <g id="Group_1" data-name="Group 1" transform="translate(-1210.213)">
        <path id="Path_1" data-name="Path 1" d="M1563.813,125.853c-17.744-57.894-68.662-63.353-84.863-63.578C1473.819,46.851,1453.294,0,1393.275,0s-80.568,46.821-85.7,62.215c-16.53.253-65.9,5.964-83.572,63.638-17.621,57.487,20.177,91.041,33.485,100.756-5.638,15.929-18.516,66.81,31.177,101.079,18.068,12.463,35.294,16.784,50.493,16.781,25.668,0,45.569-12.323,54.005-18.566,13.438,9.938,55.931,35.282,104.5,1.785,49.751-34.308,40.7-81.459,36.2-96.836C1546.212,221.137,1581.5,183.557,1563.813,125.853ZM1395.288,239.225l-57.5-40.38,21.05-67.817h68.8l23.1,68.076Z" fill="#5e4016"/>
        <path id="Path_2" data-name="Path 2" d="M1358.746,141.411l-14.964,50.8,50.111,36.43v6.414l-26.938-8.979-36.687-33.095,22.833-63.624,8.979.822Z" fill="#5e4016"/>
        <path id="Path_3" data-name="Path 3" d="M1554.408,124.737c-17.734-57.38-68.62-62.791-84.811-63.014C1464.469,46.435,1443.957,0,1383.974,0s-80.519,46.406-85.647,61.664c-16.521.25-65.864,5.911-83.521,63.073-17.61,56.978,20.165,90.234,33.465,99.863-5.635,15.787-18.505,66.218,31.157,100.183,18.057,12.352,35.272,16.635,50.462,16.633,25.653,0,45.541-12.214,53.972-18.4,13.43,9.85,55.9,34.969,104.44,1.769,49.721-34,39.8-83.939,35.3-99.179C1535.938,215.975,1572.082,181.93,1554.408,124.737ZM1385.986,237.1l-57.467-40.022,21.037-67.216h68.754l23.09,67.473Z" fill="url(#linear-gradient)"/>
        <path id="Path_4" data-name="Path 4" d="M1298.35,73.709s-50.923,9.3-64.049,47.948c-9.236,27.194-9.068,63.55,28.095,91.451l-12.445,6.807s-40.022-41.534-32.069-73.1S1234.9,71.94,1298.35,73.709Z" fill="#6b4b1a"/>
        <path id="Path_5" data-name="Path 5" d="M1258.973,227.293s9.743-8.859,8.231-3.466c-5.773,20.589-15.937,53.156,14.934,81.2,18.618,16.912,53.962,36.056,94.1,12.635l-1.305,10.986s-53.812,20.763-79.819,1.18S1232.713,285.087,1258.973,227.293Z" fill="#6b4b1a"/>
        <path id="Path_6" data-name="Path 6" d="M1385.035,240.867l10.615-2.693V310.9s31.94,32.71,87.355,7.312l-23.386,17.317-55.5-7.312-19.081-11.16Z" fill="#6b4b1a"/>
        <path id="Path_7" data-name="Path 7" d="M1362.282,129.337l-47.461-64.393s17.188-57.724,94.666-51.31l-36.943-8.466-49.77,21.807L1300.454,63.4l46.692,66.959Z" fill="#6b4b1a"/>
        <path id="Path_8" data-name="Path 8" d="M1431.138,130.363l17.317,59.985,73.694,27.9-79.466-21.165-21.55-67.216,49.45-58.814Z" fill="#6b4b1a"/>
        <path id="Path_9" data-name="Path 9" d="M1554.408,124.737c-17.734-57.38-68.62-62.791-84.811-63.014C1464.469,46.435,1443.957,0,1383.974,0s-80.519,46.406-85.647,61.664c-16.521.25-65.864,5.911-83.521,63.073-17.61,56.978,20.165,90.234,33.465,99.863-5.635,15.787-18.505,66.218,31.157,100.183,18.057,12.352,35.272,16.635,50.462,16.633,25.653,0,45.541-12.214,53.972-18.4,13.43,9.85,55.9,34.969,104.44,1.769,49.721-34,39.8-83.939,35.3-99.179C1535.938,215.975,1572.082,181.93,1554.408,124.737ZM1383.974,12.058c54.972,0,71.312,43.5,74.575,54.545l-41.734,56.708-65.093.162-42.341-56.954C1312.677,55.42,1329.06,12.058,1383.974,12.058Zm1.625,218.794-50.775-36.032,18.322-59.294,62.315-.153,18.922,59.545ZM1226.322,128.3c15.684-50.762,60.006-54.595,73.024-54.595.135,0,.223,0,.351,0l42.335,56.944-19.114,61.865-66.5,23.139C1246.709,209.179,1210.135,180.691,1226.322,128.3Zm59.912,186.534c-45.439-31.079-30.4-77.036-26.094-87.705l66.683-23.2,52.157,37.016-.482,71.022C1368.41,320.091,1330.9,345.368,1286.234,314.833Zm195.262,0c-42.86,29.314-79.188,7.165-90.947-1.835l.484-71.174,51.424-37.877,69.341,24.124C1515.45,239.07,1526.754,283.88,1481.5,314.833Zm34.091-98.207-69.319-24.116-19.72-62.077,41.739-56.714c11.688-.252,58.406,2.153,74.6,54.58C1559.028,180.519,1525,209.731,1515.587,216.626Z" fill="url(#linear-gradient-2)"/>
      </g>
      <text id="NEXT_VISION_CAPITAL" data-name="NEXT
VISION
CAPITAL" transform="translate(378 111.469)" fill="#4b3316" font-size="106.73" font-family="Helvetica"><tspan x="0" y="0">NEXT</tspan><tspan x="0" y="103.768">VISION</tspan><tspan x="0" y="207.537">CAPITAL</tspan></text>
    </g>
  </g>
</svg>
