<svg xmlns="http://www.w3.org/2000/svg" xmlns:xlink="http://www.w3.org/1999/xlink" width="373.671" height="359.08" viewBox="0 0 373.671 359.08">
  <defs>
    <linearGradient id="linear-gradient" x1="0.067" y1="0.436" x2="0.952" y2="0.595" gradientUnits="objectBoundingBox">
      <stop offset="0" stop-color="#ffcf00"/>
      <stop offset="0.463" stop-color="#fae25a"/>
      <stop offset="0.632" stop-color="#f6cd39"/>
      <stop offset="0.875" stop-color="#f0b30f"/>
      <stop offset="1" stop-color="#efa900"/>
    </linearGradient>
    <linearGradient id="linear-gradient-2" x1="0.06" y1="0.623" x2="1.006" y2="0.395" gradientUnits="objectBoundingBox">
      <stop offset="0" stop-color="#e0a50f"/>
      <stop offset="0.34" stop-color="#75531c"/>
      <stop offset="0.537" stop-color="#e6a90b"/>
      <stop offset="0.778" stop-color="#4b3316"/>
      <stop offset="1" stop-color="#ffc200"/>
    </linearGradient>
  </defs>
  <g id="Group_6" data-name="Group 6" transform="translate(-118.293)">
    <g id="Group_3" data-name="Group 3">
      <path id="Path_19" data-name="Path 19" d="M486.892,131.191c-18.5-60.349-71.575-66.04-88.463-66.275C393.08,48.838,371.685,0,309.119,0s-83.985,48.807-89.334,64.854c-17.232.263-68.7,6.217-87.117,66.337-18.368,59.925,21.033,94.9,34.906,105.03-5.877,16.6-19.3,69.643,32.5,105.366,18.835,12.992,36.791,17.5,52.635,17.493,26.757,0,47.5-12.846,56.3-19.354,14.008,10.36,58.3,36.779,108.936,1.861,51.862-35.763,42.431-84.914,37.733-100.943C468.544,230.517,505.327,191.342,486.892,131.191ZM311.218,249.372l-59.941-42.093,21.942-70.693h71.715l24.084,70.963Z" fill="#5e4016"/>
      <path id="Path_20" data-name="Path 20" d="M273.127,147.409l-15.6,52.951,52.236,37.975v6.686l-28.08-9.36-38.243-34.5,23.8-66.323,9.36.857Z" fill="#5e4016"/>
      <path id="Path_21" data-name="Path 21" d="M477.087,130.028c-18.486-59.814-71.53-65.454-88.408-65.687C383.333,48.4,361.951,0,299.424,0S215.49,48.374,210.145,64.279c-17.222.261-68.659,6.162-87.064,65.749-18.357,59.394,21.02,94.061,34.884,104.1-5.873,16.457-19.289,69.027,32.479,104.433,18.823,12.876,36.768,17.341,52.6,17.338,26.74,0,47.472-12.732,56.26-19.182,14,10.267,58.268,36.452,108.87,1.844,51.83-35.446,41.489-87.5,36.793-103.386C457.834,225.135,495.511,189.646,477.087,130.028ZM301.521,247.161l-59.9-41.719,21.929-70.067h71.671l24.069,70.334Z" fill="url(#linear-gradient)"/>
      <path id="Path_22" data-name="Path 22" d="M210.169,76.835s-53.083,9.694-66.766,49.982c-9.627,28.348-9.453,66.246,29.286,95.33l-12.973,7.1s-41.719-43.3-33.428-76.2S144.022,74.991,210.169,76.835Z" fill="#6b4b1a"/>
      <path id="Path_23" data-name="Path 23" d="M169.122,236.933s10.155-9.234,8.579-3.612c-6.017,21.461-16.613,55.41,15.568,84.642,19.407,17.629,56.25,37.585,98.09,13.171L290,342.585s-56.094,21.644-83.2,1.231S141.748,297.179,169.122,236.933Z" fill="#6b4b1a"/>
      <path id="Path_24" data-name="Path 24" d="M300.53,251.084l11.065-2.808v75.816s33.3,34.1,91.06,7.622l-24.378,18.052-57.857-7.622-19.89-11.633Z" fill="#6b4b1a"/>
      <path id="Path_25" data-name="Path 25" d="M276.812,134.823,227.338,67.7S245.256,7.527,326.02,14.212L287.51,5.387,235.628,28.119,212.362,66.094l48.672,69.8Z" fill="#6b4b1a"/>
      <path id="Path_26" data-name="Path 26" d="M348.589,135.893l18.052,62.529L443.46,227.5l-82.837-22.063-22.464-70.067,51.547-61.308Z" fill="#6b4b1a"/>
      <path id="Path_27" data-name="Path 27" d="M477.087,130.028c-18.486-59.814-71.53-65.454-88.408-65.687C383.333,48.4,361.951,0,299.424,0S215.49,48.374,210.145,64.279c-17.222.261-68.659,6.162-87.064,65.749-18.357,59.394,21.02,94.061,34.884,104.1-5.873,16.457-19.289,69.027,32.479,104.433,18.823,12.876,36.768,17.341,52.6,17.338,26.74,0,47.472-12.732,56.26-19.182,14,10.267,58.268,36.452,108.87,1.844,51.83-35.446,41.489-87.5,36.793-103.386C457.834,225.135,495.511,189.646,477.087,130.028ZM299.424,12.569c57.3,0,74.337,45.346,77.738,56.859l-43.5,59.113-67.854.17-44.137-59.37C225.1,57.77,242.181,12.569,299.424,12.569Zm1.694,228.075-52.928-37.56,19.1-61.809,64.957-.16,19.726,62.07Zm-166.033-106.9c16.35-52.916,62.552-56.911,76.121-56.911.141,0,.233,0,.367,0L255.7,136.2l-19.924,64.488L166.456,224.8C156.337,218.052,118.212,188.355,135.085,133.741Zm62.453,194.446c-47.366-32.4-31.686-80.3-27.2-91.425l69.511-24.186,54.37,38.585-.5,74.035C283.2,333.667,244.1,360.017,197.538,328.187Zm203.545,0c-44.679,30.557-82.547,7.468-94.8-1.913l.5-74.193L360.388,212.6l72.282,25.146C436.476,249.21,448.26,295.921,401.083,328.187ZM436.62,225.814l-72.259-25.138L343.8,135.965l43.508-59.119c12.185-.263,60.884,2.244,77.769,56.895C481.9,188.176,446.435,218.627,436.62,225.814Z" fill="url(#linear-gradient-2)"/>
    </g>
  </g>
</svg>
